<svg width="19" height="19" viewBox="0 0 19 19" fill="none" xmlns="http://www.w3.org/2000/svg">
<g id="trash-01">
<path id="Icon" d="M12.6667 4.74998V4.11665C12.6667 3.2299 12.6667 2.78652 12.4941 2.44783C12.3423 2.1499 12.1001 1.90769 11.8022 1.75589C11.4635 1.58331 11.0201 1.58331 10.1333 1.58331H8.86667C7.97992 1.58331 7.53654 1.58331 7.19785 1.75589C6.89993 1.90769 6.65771 2.1499 6.50591 2.44783C6.33333 2.78652 6.33333 3.2299 6.33333 4.11665V4.74998M7.91667 9.10415V13.0625M11.0833 9.10415V13.0625M2.375 4.74998H16.625M15.0417 4.74998V13.6166C15.0417 14.9468 15.0417 15.6118 14.7828 16.1199C14.5551 16.5668 14.1918 16.9301 13.7449 17.1578C13.2369 17.4166 12.5718 17.4166 11.2417 17.4166H7.75833C6.42821 17.4166 5.76315 17.4166 5.25511 17.1578C4.80822 16.9301 4.44489 16.5668 4.21719 16.1199C3.95833 15.6118 3.95833 14.9468 3.95833 13.6166V4.74998" stroke="#4B5563" stroke-width="1.5" stroke-linecap="round" stroke-linejoin="round"/>
</g>
</svg>
